# xmcd
#
# Track frame offsets:
# 150
# 18234
# 33727
# 41361
# 53566
# 64182
# 82600
# 95863
# 108486
# 122111
# 134120
# 150504
# 161191
# 181210
# 190183
# 205396
# 221418
# 236492
# 249366
# 259675
# 272298
# 285366
#
# Disc length: 3916 seconds
#
#
# Revision: 0
# Processed by: cddbd v1.5.2PL0 Copyright (c) Steve Scherf et al.
# Submitted via: FreeRIP 2.945 
#
DISCID=2f0f4a16
DTITLE=Herriot-J1992 - Every-Living-Thing03
DYEAR=1992
DGENRE=Jungle
TTITLE0=ELT 0301
TTITLE1=ELT 0302
TTITLE2=ELT 0303
TTITLE3=ELT 0304
TTITLE4=ELT 0305
TTITLE5=ELT 0306
TTITLE6=ELT 0307
TTITLE7=ELT 0308
TTITLE8=ELT 0309
TTITLE9=ELT 0310
TTITLE10=ELT 0311
TTITLE11=ELT 0312
TTITLE12=ELT 0313
TTITLE13=ELT 0314
TTITLE14=ELT 0315
TTITLE15=ELT 0316
TTITLE16=ELT 0317
TTITLE17=ELT 0318
TTITLE18=ELT 0319
TTITLE19=ELT 0320
TTITLE20=ELT 0321
TTITLE21=ELT 0322
EXTD=Every Living Thing by James Herriot 10 CDs\nread by Christopher Timothy BBC Audiobooks\njungle country
EXTT0=
EXTT1=
EXTT2=
EXTT3=
EXTT4=
EXTT5=
EXTT6=
EXTT7=
EXTT8=
EXTT9=
EXTT10=
EXTT11=
EXTT12=
EXTT13=
EXTT14=
EXTT15=
EXTT16=
EXTT17=
EXTT18=
EXTT19=
EXTT20=
EXTT21=
PLAYORDER=
